<svg width="443" height="489" viewBox="0 0 443 489" fill="none" xmlns="http://www.w3.org/2000/svg">
<g filter="url(#filter0_d_2435_8152)">
<path fill-rule="evenodd" clip-rule="evenodd" d="M53.4341 468.666H319.043V469.899H53.4341V468.666Z" fill="#3FB1B5"/>
<path fill-rule="evenodd" clip-rule="evenodd" d="M300.443 480.999H8.08301V480.045H300.443V480.999Z" fill="#66B0F0"/>
<path d="M299.153 4.92188V52.7712C299.153 62.1421 291.508 69.7545 282.097 69.7545H228.816C238.227 69.7545 245.872 62.1652 245.872 52.7712V4.92188H299.153Z" fill="white"/>
<path fill-rule="evenodd" clip-rule="evenodd" d="M245.291 4.34375H299.733V52.7716C299.733 62.4619 291.829 70.3333 282.097 70.3333H228.816V69.1764C237.907 69.1764 245.291 61.8456 245.291 52.7716V4.34375ZM235.126 69.1764H282.097C291.187 69.1764 298.572 61.823 298.572 52.7716V5.50065H246.453V52.7716C246.453 60.2669 241.746 66.6511 235.126 69.1764Z" fill="#66B0F0"/>
<path d="M274.545 0.294922H270.246V10.4988H274.545V0.294922Z" fill="#FFCF2D"/>
<path d="M283.655 23.1086C283.05 23.1086 282.446 22.8773 281.958 22.4376L280.169 20.8643C279.612 20.3784 278.868 20.3784 278.31 20.8643L276.614 22.3682C275.615 23.2475 274.221 23.2475 273.198 22.3682L271.641 21.0031C271.084 20.5172 270.34 20.5172 269.783 21.0031L268.342 22.2757C267.343 23.1549 265.949 23.1549 264.926 22.2757L263.741 21.2345C263.184 20.7486 262.44 20.7486 261.882 21.2345L260.604 22.3682C259.605 23.2475 258.211 23.2475 257.189 22.3682L256.004 21.327C255.446 20.8411 254.702 20.8411 254.145 21.327C253.912 21.5353 253.54 21.5121 253.331 21.2807C253.122 21.0494 253.145 20.6791 253.378 20.4709C254.377 19.5917 255.771 19.5917 256.794 20.4709L257.979 21.5121C258.536 21.998 259.28 21.998 259.837 21.5121L261.115 20.3784C262.115 19.4991 263.509 19.4991 264.531 20.3784L265.716 21.4196C266.274 21.9055 267.017 21.9055 267.575 21.4196L269.016 20.147C270.015 19.2677 271.409 19.2677 272.432 20.147L273.988 21.5121C274.546 21.998 275.29 21.998 275.847 21.5121L277.544 20.0081C278.543 19.1289 279.937 19.1289 280.959 20.0081L282.748 21.5815C283.306 22.0674 284.05 22.0674 284.607 21.5815L286.466 19.9387C287.465 19.0595 288.86 19.0595 289.882 19.9387C290.114 20.147 290.138 20.5172 289.928 20.7486C289.719 20.9799 289.347 21.0031 289.115 20.7948C288.557 20.3089 287.814 20.3089 287.256 20.7948L285.397 22.4376C284.84 22.8773 284.259 23.1086 283.655 23.1086Z" fill="#66B0F0"/>
<path d="M283.655 32.6184C283.05 32.6184 282.446 32.387 281.958 31.9474L280.169 30.374C279.612 29.8881 278.868 29.8881 278.31 30.374L276.614 31.878C275.615 32.7572 274.221 32.7572 273.198 31.878L271.641 30.5128C271.084 30.0269 270.34 30.0269 269.783 30.5128L268.342 31.7854C267.343 32.6646 265.949 32.6646 264.926 31.7854L263.741 30.7442C263.184 30.2583 262.44 30.2583 261.882 30.7442L260.604 31.878C259.605 32.7572 258.211 32.7572 257.189 31.878L256.004 30.8368C255.446 30.3509 254.702 30.3509 254.145 30.8368C253.912 31.045 253.54 31.0219 253.331 30.7905C253.122 30.5591 253.145 30.1889 253.378 29.9807C254.377 29.1014 255.771 29.1014 256.794 29.9807L257.979 31.0219C258.536 31.5077 259.28 31.5077 259.837 31.0219L261.115 29.8881C262.115 29.0089 263.509 29.0089 264.531 29.8881L265.716 30.9293C266.274 31.4152 267.017 31.4152 267.575 30.9293L269.016 29.6567C270.015 28.7775 271.409 28.7775 272.432 29.6567L273.988 31.0219C274.546 31.5077 275.29 31.5077 275.847 31.0219L277.544 29.5179C278.543 28.6387 279.937 28.6387 280.959 29.5179L282.748 31.0913C283.306 31.5772 284.05 31.5772 284.607 31.0913L286.466 29.4485C287.465 28.5693 288.86 28.5693 289.882 29.4485C290.114 29.6567 290.138 30.0269 289.928 30.2583C289.719 30.4897 289.347 30.5128 289.115 30.3046C288.557 29.8187 287.814 29.8187 287.256 30.3046L285.397 31.9474C284.84 32.4101 284.259 32.6184 283.655 32.6184Z" fill="#66B0F0"/>
<path d="M283.655 42.1281C283.05 42.1281 282.446 41.8968 281.958 41.4572L280.169 39.8838C279.612 39.3979 278.868 39.3979 278.31 39.8838L276.614 41.3877C275.615 42.267 274.221 42.267 273.198 41.3877L271.641 40.0226C271.084 39.5367 270.34 39.5367 269.783 40.0226L268.342 41.2952C267.343 42.1744 265.949 42.1744 264.926 41.2952L263.741 40.254C263.184 39.7681 262.44 39.7681 261.882 40.254L260.604 41.3877C259.605 42.267 258.211 42.267 257.189 41.3877L256.004 40.3465C255.446 39.8606 254.702 39.8606 254.145 40.3465C253.912 40.5548 253.54 40.5316 253.331 40.3003C253.122 40.0689 253.145 39.6987 253.378 39.4904C254.377 38.6112 255.771 38.6112 256.794 39.4904L257.979 40.5316C258.536 41.0175 259.28 41.0175 259.837 40.5316L261.115 39.3979C262.115 38.5186 263.509 38.5186 264.531 39.3979L265.716 40.4391C266.274 40.925 267.017 40.925 267.575 40.4391L269.016 39.1665C270.015 38.2873 271.409 38.2873 272.432 39.1665L273.988 40.5316C274.546 41.0175 275.29 41.0175 275.847 40.5316L277.544 39.0277C278.543 38.1484 279.937 38.1484 280.959 39.0277L282.748 40.601C283.306 41.0869 284.05 41.0869 284.607 40.601L286.466 38.9583C287.465 38.079 288.86 38.079 289.882 38.9583C290.114 39.1665 290.138 39.5367 289.928 39.7681C289.719 39.9995 289.347 40.0226 289.115 39.8144C288.557 39.3285 287.814 39.3285 287.256 39.8144L285.397 41.4572C284.84 41.9199 284.259 42.1281 283.655 42.1281Z" fill="#66B0F0"/>
<path d="M283.655 51.6594C283.05 51.6594 282.446 51.428 281.958 50.9884L280.169 49.415C279.612 48.9291 278.868 48.9291 278.31 49.415L276.614 50.919C275.615 51.7982 274.221 51.7982 273.198 50.919L271.641 49.5539C271.084 49.068 270.34 49.068 269.783 49.5539L268.342 50.8264C267.343 51.7057 265.949 51.7057 264.926 50.8264L263.741 49.7852C263.184 49.2993 262.44 49.2993 261.882 49.7852L260.604 50.919C259.605 51.7982 258.211 51.7982 257.189 50.919L256.004 49.8778C255.446 49.3919 254.702 49.3919 254.145 49.8778C253.912 50.086 253.54 50.0629 253.331 49.8315C253.122 49.6001 253.145 49.2299 253.378 49.0217C254.377 48.1425 255.771 48.1425 256.794 49.0217L257.979 50.0629C258.536 50.5488 259.28 50.5488 259.837 50.0629L261.115 48.9291C262.115 48.0499 263.509 48.0499 264.531 48.9291L265.716 49.9703C266.274 50.4562 267.017 50.4562 267.575 49.9703L269.016 48.6978C270.015 47.8185 271.409 47.8185 272.432 48.6978L273.988 50.0629C274.546 50.5488 275.29 50.5488 275.847 50.0629L277.544 48.5589C278.543 47.6797 279.937 47.6797 280.959 48.5589L282.748 50.1323C283.306 50.6182 284.05 50.6182 284.607 50.1323L286.466 48.4895C287.465 47.6103 288.86 47.6103 289.882 48.4895C290.114 48.6978 290.138 49.068 289.928 49.2993C289.719 49.5307 289.347 49.5539 289.115 49.3456C288.557 48.8597 287.814 48.8597 287.256 49.3456L285.397 50.9884C284.84 51.428 284.259 51.6594 283.655 51.6594Z" fill="#66B0F0"/>
<path d="M354.012 4.91992H316.741V42.0333H354.012V4.91992Z" fill="#FFCF2D"/>
<path d="M324.931 3.33629L322.232 0.00390625L312.391 7.94158L315.09 11.274L324.931 3.33629Z" fill="#FE5244"/>
<path d="M355.945 11.2571L358.647 7.92773L348.797 0.000951168L346.095 3.33035L355.945 11.2571Z" fill="#FE5244"/>
<path d="M346.135 13.7148H323.526V15.1031H346.135V13.7148Z" fill="white"/>
<path d="M346.135 19.707H323.526V21.0953H346.135V19.707Z" fill="white"/>
<path d="M346.135 25.7207H323.526V27.1089H346.135V25.7207Z" fill="white"/>
<path d="M346.135 31.7148H323.526V33.1031H346.135V31.7148Z" fill="white"/>
<path d="M382.457 404.179C381.917 404.02 381.618 403.94 381.618 403.94L375.085 425.244L350.494 418.819C350.295 418.64 350.195 418.541 350.195 418.541C350.195 418.541 250.612 340.823 245.378 303.525C240.164 266.228 281.875 230.84 281.875 230.84C281.875 230.84 370.83 398.271 381.837 403.741C382.057 403.861 382.277 404 382.457 404.179Z" fill="#E57281"/>
<path d="M302.931 270.008C299.814 286.618 288.867 320.255 277.541 352.799C260.76 334.796 247.216 316.635 245.378 303.506C242.062 279.874 257.624 256.979 269.45 243.412C273.785 239.951 278.459 236.768 283.513 233.924C286.61 239.712 293.781 253.12 302.931 270.008Z" fill="#9A3B82"/>
<path d="M438.351 418.522L401.774 441.895L391.166 440.304L381.398 446.47L384.554 452.915L368.473 463.199C347.158 443.884 350.174 418.761 350.174 418.761L375.065 425.265L381.597 403.961C381.597 403.961 403.951 410.466 420.452 409.909C436.992 409.352 438.351 418.522 438.351 418.522Z" fill="white"/>
<path fill-rule="evenodd" clip-rule="evenodd" d="M381.197 403.223L381.765 403.388L381.597 403.961C381.765 403.388 381.765 403.388 381.765 403.388L381.781 403.392L381.828 403.406C381.87 403.418 381.933 403.436 382.016 403.46C382.183 403.507 382.429 403.576 382.749 403.664C383.39 403.84 384.324 404.091 385.497 404.39C387.843 404.99 391.143 405.783 394.957 406.559C402.595 408.113 412.253 409.588 420.431 409.312C428.816 409.03 433.46 411.213 436.011 413.569C437.281 414.742 438.012 415.939 438.426 416.852C438.633 417.308 438.761 417.694 438.838 417.97C438.876 418.108 438.902 418.218 438.918 418.298C438.926 418.337 438.932 418.369 438.936 418.392C438.938 418.403 438.94 418.413 438.941 418.42L438.943 418.429L438.943 418.432L438.943 418.434C438.943 418.434 438.944 418.435 438.351 418.522L438.944 418.435L439 418.816L401.907 442.518L391.298 440.927L382.171 446.688L385.326 453.13L368.41 463.949L368.069 463.641C357.3 453.882 352.675 442.651 350.745 433.864C349.78 429.472 349.488 425.688 349.437 422.999C349.411 421.654 349.446 420.583 349.488 419.844C349.509 419.475 349.531 419.189 349.549 418.994C349.557 418.897 349.565 418.822 349.57 418.771C349.573 418.745 349.575 418.726 349.577 418.712L349.578 418.696L349.579 418.692L349.579 418.69C349.579 418.69 349.579 418.69 350.174 418.76L349.579 418.69L349.661 418.009L374.66 424.542L381.197 403.223ZM350.71 419.517C350.701 419.634 350.693 419.766 350.685 419.911C350.645 420.622 350.61 421.664 350.635 422.977C350.685 425.602 350.971 429.306 351.916 433.609C353.786 442.12 358.234 452.965 368.538 462.449L383.782 452.7L380.624 446.252L391.034 439.68L401.64 441.271L437.671 418.247C437.607 418.026 437.502 417.714 437.334 417.343C436.976 416.554 436.334 415.494 435.196 414.444C432.933 412.354 428.627 410.23 420.472 410.505C412.15 410.786 402.381 409.287 394.717 407.728C390.88 406.948 387.56 406.15 385.199 405.547C384.018 405.245 383.077 404.992 382.431 404.815C382.268 404.77 382.124 404.73 381.999 404.695L375.47 425.988L350.71 419.517Z" fill="#FE5244"/>
<path fill-rule="evenodd" clip-rule="evenodd" d="M397.299 406.023C397.249 405.58 397.174 404.955 397.073 404.211C396.867 402.7 396.552 400.69 396.114 398.707C395.678 396.735 395.112 394.748 394.392 393.305C394.033 392.587 393.613 391.954 393.111 391.532C392.59 391.094 391.949 390.862 391.233 391.05L391.231 391.051L391.23 391.051C390.515 391.243 390.052 391.78 389.778 392.427C389.507 393.064 389.392 393.859 389.381 394.714C389.358 396.43 389.754 398.557 390.401 400.569C391.047 402.58 391.964 404.537 393.026 405.894C393.555 406.571 394.149 407.134 394.796 407.463C395.461 407.802 396.195 407.895 396.927 407.596C398.164 407.091 399.328 405.934 400.359 404.589C401.404 403.226 402.37 401.593 403.191 400.033C404.013 398.469 404.697 396.964 405.175 395.851C405.415 395.294 405.603 394.834 405.731 394.513C405.796 394.352 405.845 394.226 405.879 394.14C405.895 394.097 405.908 394.064 405.917 394.041L405.927 394.015L405.93 394.006L405.93 394.006C405.93 394.006 405.93 394.006 405.369 393.795C404.808 393.585 404.808 393.585 404.808 393.585L404.808 393.586L404.808 393.587L404.806 393.593L404.797 393.616C404.789 393.637 404.777 393.668 404.761 393.71C404.729 393.792 404.681 393.915 404.618 394.071C404.493 394.384 404.308 394.835 404.073 395.382C403.603 396.476 402.933 397.951 402.129 399.479C401.324 401.009 400.394 402.577 399.407 403.865C398.697 404.791 397.985 405.534 397.299 406.023ZM396.154 406.575C395.899 406.604 395.632 406.548 395.341 406.4C394.909 406.181 394.444 405.765 393.971 405.16C393.028 403.954 392.164 402.141 391.542 400.205C390.921 398.272 390.559 396.277 390.579 394.729C390.589 393.952 390.695 393.329 390.881 392.892C391.063 392.464 391.292 392.271 391.54 392.204C391.788 392.139 392.037 392.191 392.338 392.444C392.658 392.713 392.99 393.179 393.318 393.836C393.971 395.144 394.512 397.015 394.943 398.964C395.372 400.903 395.682 402.878 395.885 404.371C395.987 405.117 396.061 405.741 396.11 406.178C396.128 406.335 396.143 406.469 396.154 406.575Z" fill="#FE5244"/>
<path fill-rule="evenodd" clip-rule="evenodd" d="M437.149 415.844L402.339 437.486L390.786 435.635L378.662 442.851L353.98 442.471L353.999 441.277L378.339 441.653L390.546 434.388L402.086 436.237L436.515 414.832L437.149 415.844Z" fill="#FE5244"/>
<path fill-rule="evenodd" clip-rule="evenodd" d="M388.842 416.328L391.12 405.766L392.292 406.016L390.014 416.579L388.842 416.328Z" fill="#FE5244"/>
<path fill-rule="evenodd" clip-rule="evenodd" d="M393.797 417.522L396.074 406.959L397.246 407.21L394.969 417.772L393.797 417.522Z" fill="#FE5244"/>
<path fill-rule="evenodd" clip-rule="evenodd" d="M398.971 418.377L401.248 407.814L402.42 408.065L400.143 418.628L398.971 418.377Z" fill="#FE5244"/>
<path d="M273.425 222.705C273.425 222.705 288.068 229.508 288.068 254.453C288.068 278.562 232.174 426.2 232.174 426.2L214.974 440.722L197.515 421.685C206.045 413.609 181.553 267.601 273.425 222.705Z" fill="#E57281"/>
<path d="M271.868 469.007L228.399 469.047L220.328 462.005L208.762 461.945L207.923 469.067L190.883 469.087C181.614 440.363 197.595 421.664 197.595 421.664L214.935 440.681L232.255 426.18C232.255 426.18 247.277 443.724 261.46 452.119C275.683 460.533 271.868 469.007 271.868 469.007Z" fill="white"/>
<path fill-rule="evenodd" clip-rule="evenodd" d="M197.58 420.76L214.99 439.854L232.324 425.341L232.71 425.792L232.254 426.179C232.71 425.792 232.71 425.792 232.71 425.792L232.72 425.804L232.752 425.841C232.781 425.874 232.823 425.923 232.879 425.987C232.992 426.117 233.159 426.308 233.377 426.555C233.813 427.049 234.453 427.764 235.265 428.649C236.89 430.419 239.204 432.867 241.959 435.576C247.478 441.002 254.738 447.446 261.766 451.605C268.977 455.871 271.704 460.208 272.578 463.568C273.012 465.24 272.98 466.644 272.835 467.637C272.762 468.133 272.661 468.527 272.577 468.801C272.534 468.938 272.496 469.046 272.467 469.121C272.46 469.141 272.453 469.158 272.447 469.173C272.441 469.188 272.436 469.2 272.432 469.21C272.427 469.221 272.423 469.23 272.42 469.237L272.417 469.245L272.415 469.25C272.415 469.25 272.414 469.251 271.868 469.006L272.414 469.251L272.256 469.603L228.174 469.643L220.101 462.6L209.295 462.544L208.456 469.662L190.446 469.683L190.312 469.269C185.632 454.766 187.324 442.777 190.196 434.41C191.631 430.23 193.359 426.955 194.732 424.722C195.418 423.606 196.015 422.749 196.443 422.17C196.657 421.88 196.829 421.659 196.948 421.509C197.008 421.435 197.054 421.378 197.087 421.339C197.103 421.319 197.115 421.305 197.124 421.294L197.134 421.282L197.137 421.279L197.138 421.277C197.138 421.277 197.139 421.277 197.595 421.663L197.139 421.277L197.58 420.76ZM197.627 422.586C197.561 422.673 197.488 422.77 197.409 422.877C196.999 423.432 196.421 424.26 195.754 425.345C194.419 427.516 192.732 430.712 191.33 434.796C188.556 442.88 186.897 454.454 191.321 468.489L207.39 468.47L208.229 461.345L220.555 461.409L228.624 468.449L271.443 468.41C271.509 468.189 271.589 467.869 271.648 467.465C271.774 466.606 271.807 465.365 271.417 463.867C270.642 460.886 268.166 456.78 261.154 452.631C253.998 448.396 246.656 441.87 241.117 436.425C238.344 433.699 236.016 431.236 234.381 429.454C233.563 428.563 232.918 427.842 232.477 427.343C232.368 427.22 232.271 427.11 232.188 427.014L214.879 441.507L197.627 422.586Z" fill="#FE5244"/>
<path fill-rule="evenodd" clip-rule="evenodd" d="M252.27 420.056C253.16 419.934 254.018 420.153 254.762 420.796C255.5 421.434 255.84 422.23 255.837 423.104C255.835 423.949 255.515 424.825 255.031 425.679C254.065 427.385 252.326 429.202 250.486 430.844C248.635 432.495 246.636 434.01 245.103 435.11C244.395 435.618 243.785 436.039 243.332 436.345C243.531 436.364 243.773 436.373 244.061 436.368C244.781 436.357 245.688 436.265 246.725 436.111C248.797 435.802 251.325 435.255 253.785 434.658C256.242 434.062 258.617 433.421 260.38 432.928C261.261 432.682 261.988 432.473 262.494 432.326C262.747 432.252 262.946 432.194 263.08 432.154C263.147 432.134 263.199 432.119 263.233 432.108L263.285 432.093C263.285 432.093 263.285 432.093 263.458 432.664C263.63 433.236 263.63 433.236 263.63 433.236L263.577 433.252C263.557 433.258 263.532 433.265 263.502 433.274C263.478 433.281 263.451 433.289 263.421 433.298C263.285 433.338 263.085 433.397 262.83 433.471C262.32 433.62 261.589 433.83 260.704 434.077C258.933 434.572 256.543 435.218 254.068 435.818C251.596 436.417 249.027 436.975 246.902 437.291C245.841 437.449 244.875 437.549 244.08 437.562C243.32 437.573 242.598 437.51 242.114 437.246C241.455 436.885 241.333 436.103 241.356 435.447C241.381 434.736 241.584 433.859 241.9 432.913C242.537 431.01 243.685 428.683 245.065 426.543C246.44 424.411 248.08 422.412 249.722 421.209C250.544 420.607 251.407 420.174 252.27 420.056ZM242.557 435.427C243.009 435.122 243.65 434.682 244.402 434.142C245.917 433.055 247.879 431.568 249.686 429.955C251.504 428.332 253.121 426.622 253.987 425.092C254.421 424.328 254.637 423.659 254.639 423.101C254.64 422.573 254.451 422.108 253.976 421.697C253.505 421.29 252.997 421.161 252.433 421.238C251.844 421.319 251.168 421.631 250.433 422.17C248.961 423.248 247.415 425.108 246.073 427.188C244.736 429.261 243.637 431.499 243.038 433.29C242.748 434.156 242.586 434.886 242.557 435.427Z" fill="#FE5244"/>
<path fill-rule="evenodd" clip-rule="evenodd" d="M188.265 444.189L188.905 443.18L209.154 455.898H223.362L232.332 463.397H272.207V464.591H231.895L222.926 457.092H208.808L188.265 444.189Z" fill="#FE5244"/>
<path fill-rule="evenodd" clip-rule="evenodd" d="M230.272 439.484L237.943 431.846L238.791 432.69L231.12 440.328L230.272 439.484Z" fill="#FE5244"/>
<path fill-rule="evenodd" clip-rule="evenodd" d="M233.787 443.164L241.458 435.525L242.306 436.369L234.635 444.008L233.787 443.164Z" fill="#FE5244"/>
<path fill-rule="evenodd" clip-rule="evenodd" d="M237.664 446.666L245.335 439.027L246.182 439.871L238.511 447.51L237.664 446.666Z" fill="#FE5244"/>
<path d="M273.425 222.705C238.885 239.574 220.787 270.764 211.218 303.526H106.401C79.5726 303.526 59.5761 278.88 65.2294 252.762L72.9204 217.195H255.166C261.918 217.195 268.191 219.224 273.425 222.705Z" fill="#FE5244"/>
<path d="M195.595 256.798L233.331 256.719L227.738 265.849L195.595 256.798Z" fill="#E57281"/>
<path fill-rule="evenodd" clip-rule="evenodd" d="M112.675 216.61C113 216.678 113.207 216.994 113.14 217.316L111.682 224.278C111.682 224.278 111.682 224.278 111.682 224.278C108.243 240.717 120.825 256.143 137.684 256.143H233.004C243.061 242.274 256.185 230.362 273.36 221.97C273.657 221.825 274.016 221.947 274.162 222.243C274.308 222.539 274.185 222.896 273.888 223.041C256.806 231.388 243.775 243.255 233.798 257.088L233.619 257.337H137.684C120.063 257.337 106.915 241.214 110.508 224.035L111.966 217.073C112.034 216.75 112.351 216.543 112.675 216.61Z" fill="white"/>
<path fill-rule="evenodd" clip-rule="evenodd" d="M195.021 256.616C195.112 256.299 195.444 256.116 195.762 256.207L228.252 265.491L227.855 266.156C220.875 277.859 215.739 290.641 211.934 303.673C211.842 303.99 211.509 304.172 211.191 304.08C210.873 303.988 210.691 303.657 210.783 303.34C214.537 290.48 219.588 277.839 226.43 266.212L195.432 257.354C195.114 257.263 194.93 256.933 195.021 256.616Z" fill="white"/>
<path d="M48.4293 121.653L67.6267 196.646H31.8088C10.9533 196.646 -2.47096 174.586 7.19769 156.186L34.7054 103.81C42.4962 88.9908 57.8981 79.7012 74.6984 79.7012H81.1908C59.1367 79.6813 42.9757 100.369 48.4293 121.653Z" fill="#3FB1B5"/>
<path d="M269.49 102.198C280.777 102.198 290.166 100.706 292.443 98.6176L257.424 174.207C251.092 187.893 237.328 196.645 222.205 196.645C217.771 196.645 213.416 195.89 209.301 194.437C205.185 192.985 201.31 190.857 197.854 188.072L175.78 170.328C175.78 170.328 173.583 183.198 157.901 186.481V217.154H72.901L48.4297 121.633C42.9761 100.348 59.1371 79.6406 81.1912 79.6406H140.701C145.955 79.6406 151.129 80.2971 156.123 81.5701C169.787 85.0314 182.053 93.028 190.722 104.486L219.808 142.917L245.938 97.444C245.938 97.4838 245.918 97.5434 245.918 97.5832C245.938 100.229 256.505 102.198 269.49 102.198Z" fill="#3FB1B5"/>
<path fill-rule="evenodd" clip-rule="evenodd" d="M48.0853 121.072C48.4065 120.993 48.7315 121.188 48.811 121.508L67.609 197.098C67.6885 197.418 67.4926 197.741 67.1713 197.821C66.85 197.9 66.5251 197.705 66.4455 197.385L47.6476 121.795C47.568 121.475 47.764 121.152 48.0853 121.072Z" fill="white"/>
<path fill-rule="evenodd" clip-rule="evenodd" d="M158.868 153.205C159.109 152.979 159.489 152.991 159.715 153.231L176.416 170.935C176.642 171.175 176.63 171.553 176.389 171.779C176.148 172.004 175.769 171.992 175.542 171.752L158.842 154.048C158.615 153.808 158.627 153.43 158.868 153.205Z" fill="white"/>
<path d="M292.963 97.5042L292.443 98.6182C290.166 100.727 280.777 102.199 269.49 102.199C256.506 102.199 245.938 100.229 245.938 97.6236C245.938 97.5838 245.938 97.5241 245.958 97.4843C246.318 94.9381 256.745 92.75 269.51 92.75C282.255 92.75 292.603 94.9381 292.963 97.5042C292.963 97.4843 292.963 97.4843 292.963 97.5042Z" fill="#FE5244"/>
<path d="M303.429 59.3108C303.429 60.4447 303.149 61.5586 302.63 62.5333C302.11 63.5081 301.351 64.3634 300.412 65.0198L299.953 65.3381L296.377 84.335C295.798 87.4182 293.96 90.1434 291.303 91.8343L286.409 94.9374L282.533 97.404L280.736 101.681C277.399 102.019 273.584 102.218 269.509 102.218C265.394 102.218 261.518 102.019 258.142 101.661V72.2009C258.142 70.9278 258.422 69.6746 258.961 68.5208L265.473 54.5566C265.473 54.5566 272.585 56.3071 269.309 65C266.332 72.8971 273.124 70.8681 276.94 69.4557C280.356 68.1827 295.278 60.6237 301.112 57.8587C302.19 57.3415 303.429 58.1372 303.429 59.3108Z" fill="#E57281"/>
<path fill-rule="evenodd" clip-rule="evenodd" d="M297.289 76.6238C297.56 76.6743 297.738 76.9341 297.688 77.2041C297.083 80.4229 295.164 83.2466 292.392 85.0111L283.622 90.5811C283.389 90.7288 283.08 90.6608 282.932 90.4292C282.784 90.1977 282.852 89.8902 283.084 89.7425L291.854 84.173C294.395 82.5559 296.152 79.9689 296.706 77.0212C296.757 76.7512 297.017 76.5733 297.289 76.6238Z" fill="#9A3B82"/>
<path fill-rule="evenodd" clip-rule="evenodd" d="M298.727 68.5691C298.998 68.6196 299.177 68.8794 299.126 69.1494C298.521 72.3682 296.603 75.1919 293.83 76.9564L285.06 82.5264C284.827 82.6741 284.519 82.6061 284.37 82.3745C284.222 82.143 284.29 81.8355 284.523 81.6878L293.292 76.1183C293.292 76.1183 293.292 76.1182 293.292 76.1181C293.292 76.1181 293.292 76.1181 293.292 76.1181C295.833 74.501 297.59 71.914 298.144 68.9665C298.195 68.6965 298.456 68.5186 298.727 68.5691Z" fill="#9A3B82"/>
<path fill-rule="evenodd" clip-rule="evenodd" d="M299.735 65.2895C299.883 65.5214 299.814 65.8287 299.581 65.9759L285.478 74.8875C285.245 75.0347 284.936 74.966 284.788 74.7341C284.64 74.5022 284.709 74.1949 284.942 74.0477L299.046 65.1361C299.279 64.9889 299.587 65.0576 299.735 65.2895Z" fill="#9A3B82"/>
<path d="M287.169 94.4409L286.39 94.9382L282.514 97.4048L280.716 101.682C277.38 102.02 273.565 102.219 269.49 102.219C265.374 102.219 261.499 102.02 258.123 101.662V93.3866C261.499 92.9888 265.374 92.77 269.49 92.77C276.541 92.7501 282.854 93.4065 287.169 94.4409Z" fill="#9A3B82"/>
<path d="M154.266 81.1132C151.37 84.9922 140.583 94.1226 104.265 94.1226C57.5401 94.1226 87.445 79.7208 87.445 79.7208L107.262 46.7598L128.517 59.7492V70.1925C128.517 75.4639 132.812 79.7208 138.085 79.7208H139.464C144.418 79.7009 149.532 79.9197 154.266 81.1132Z" fill="#E57281"/>
<path d="M128.498 59.7297V62.3952L87.4258 79.7013L107.243 46.7402L128.498 59.7297Z" fill="#9A3B82"/>
<path d="M129.614 61.0218H134.129C138.284 61.0218 141.66 57.6601 141.66 53.5226V28.4785H114.711V46.1824C114.711 54.3779 121.384 61.0218 129.614 61.0218Z" fill="#E57281"/>
<path fill-rule="evenodd" clip-rule="evenodd" d="M137.457 49.832L137.457 49.8316L137.456 49.831L137.456 49.8302C137.456 49.83 137.456 49.83 137.456 49.8303C137.456 49.8303 137.456 49.8303 137.456 49.8304M137.456 49.8304C137.456 49.8305 137.456 49.8306 137.456 49.8307C137.457 49.832 137.459 49.835 137.462 49.8397C137.468 49.8491 137.478 49.8651 137.493 49.8868C137.523 49.9302 137.57 49.9961 137.637 50.0771C137.771 50.2393 137.979 50.46 138.27 50.6818C138.847 51.122 139.756 51.5739 141.08 51.5739C141.356 51.5739 141.58 51.7965 141.58 52.0712C141.58 52.3458 141.356 52.5685 141.08 52.5685C139.508 52.5685 138.389 52.0258 137.663 51.4713C137.302 51.1958 137.039 50.9192 136.865 50.7085C136.778 50.603 136.713 50.5134 136.668 50.4481C136.646 50.4154 136.628 50.3886 136.616 50.3689C136.61 50.359 136.605 50.3509 136.601 50.3446L136.596 50.3366L136.594 50.3336L136.594 50.3325L136.593 50.3319C136.593 50.3317 136.593 50.3315 137.025 50.0819" fill="#73325A"/>
<path d="M138.462 44.0534C138.992 44.0534 139.421 43.2251 139.421 42.2034C139.421 41.1818 138.992 40.3535 138.462 40.3535C137.933 40.3535 137.503 41.1818 137.503 42.2034C137.503 43.2251 137.933 44.0534 138.462 44.0534Z" fill="#73325A"/>
<path d="M119.847 31.0858C119.847 31.0858 142.081 44.4533 149.312 32.8164C155.665 22.6118 127.518 17.3603 117.689 17.3206C107.002 17.2808 92.8385 21.9952 93.0782 37.6502C93.278 50.5402 93.8173 69.3979 86.1463 66.1157C58.8584 54.459 34.6069 66.6329 34.527 89.8269C34.4471 113.021 61.4753 115.189 62.1545 109.202C62.8537 103.234 45.3743 104.607 47.7315 120.103C50.0688 135.598 60.4965 154.973 84.3085 154.973C113.075 154.993 131.393 117.278 113.594 113.439C99.9501 110.495 127.498 136.712 135.668 109.46C144.458 80.1197 112.695 70.5118 111.916 52.788C111.137 35.0642 119.847 31.0858 119.847 31.0858Z" fill="#FFCF2D"/>
<path fill-rule="evenodd" clip-rule="evenodd" d="M101.014 21.1819C105.968 17.982 112.287 16.8024 117.691 16.8225C122.659 16.8426 132.208 18.1742 139.733 20.7864C143.486 22.0893 146.807 23.7341 148.79 25.7468C149.787 26.7595 150.471 27.8912 150.673 29.1427C150.877 30.4022 150.582 31.72 149.737 33.0774C147.832 36.142 144.935 37.5507 141.719 37.9481C138.521 38.3433 134.988 37.7438 131.727 36.7914C128.459 35.8372 125.427 34.5173 123.214 33.4386C122.107 32.8987 121.203 32.418 120.574 32.0719C120.26 31.8987 120.015 31.7592 119.848 31.6626C119.843 31.6601 119.839 31.6577 119.835 31.6553C119.804 31.6732 119.77 31.6932 119.734 31.7155C119.515 31.848 119.196 32.0599 118.813 32.3698C118.046 32.9893 117.018 34.0019 116.009 35.5594C113.993 38.6695 112.029 43.9895 112.415 52.7655C112.603 57.046 114.662 60.8704 117.589 64.6919C119.051 66.601 120.719 68.4961 122.464 70.4399C122.761 70.7707 123.06 71.1031 123.36 71.437C124.822 73.0608 126.319 74.7237 127.764 76.4486C131.249 80.6091 134.466 85.1717 136.249 90.5633C138.036 95.9667 138.372 102.173 136.147 109.602C134.076 116.508 130.743 120.13 127.041 121.625C125.085 122.415 123.059 122.596 121.115 122.38C121.198 126.427 119.644 131.243 116.842 135.908C110.829 145.918 98.9148 155.48 84.3081 155.47C72.2476 155.47 63.5528 150.556 57.5888 143.673C51.6369 136.804 48.4164 127.992 47.2375 120.176C46.6652 116.413 47.2303 113.422 48.4518 111.139C48.2586 111.068 48.0653 110.995 47.8722 110.919C40.8857 108.165 33.9867 101.663 34.0275 89.8245C34.0681 78.0332 40.2645 69.0188 49.9193 64.4523C59.5588 59.8931 72.5964 59.7856 86.3431 65.6579L86.3434 65.658C87.2226 66.0342 87.9273 66.0706 88.5039 65.8887C89.0845 65.7057 89.6093 65.2782 90.0801 64.5857C91.0356 63.1803 91.6706 60.8283 92.0687 57.8805C92.8145 52.36 92.6972 45.0504 92.5973 38.8243C92.591 38.4307 92.5847 38.0414 92.5788 37.657C92.4561 29.6485 96.0317 24.4 101.014 21.1819ZM49.41 111.466C48.2522 113.55 47.6677 116.363 48.2252 120.027L48.2253 120.028C49.3836 127.708 52.5456 136.331 58.345 143.023C64.1321 149.702 72.5571 154.475 84.3084 154.475H84.3088C98.4682 154.485 110.097 145.199 115.985 135.397C118.771 130.758 120.237 126.059 120.111 122.233C118.751 121.985 117.445 121.555 116.246 121.018C114.653 120.304 113.234 119.395 112.107 118.452C110.987 117.515 110.127 116.52 109.689 115.624C109.47 115.177 109.338 114.717 109.366 114.281C109.395 113.823 109.602 113.418 110 113.135C110.377 112.867 110.885 112.737 111.482 112.711C112.085 112.685 112.822 112.763 113.7 112.952C116.02 113.453 117.786 114.515 119.013 116.011C120.21 117.472 120.867 119.313 121.058 121.372C122.915 121.602 124.833 121.443 126.666 120.703C130 119.357 133.175 116.037 135.189 109.317C137.359 102.076 137.021 96.0784 135.3 90.8744C133.575 85.6586 130.451 81.2101 126.997 77.0856C125.564 75.3755 124.081 73.7282 122.62 72.1046C122.318 71.7697 122.018 71.4358 121.719 71.1026C119.974 69.158 118.283 67.2377 116.795 65.2951C113.822 61.4134 111.618 57.3905 111.417 52.809C111.024 43.8613 113.025 38.3302 115.169 35.0201C116.24 33.3676 117.341 32.2778 118.183 31.5975C118.604 31.2575 118.96 31.0201 119.214 30.8658C119.342 30.7887 119.444 30.7324 119.516 30.6944C119.552 30.6754 119.58 30.661 119.601 30.6509C119.611 30.6458 119.62 30.6418 119.626 30.6389L119.634 30.6352L119.638 30.6335C119.638 30.6333 119.638 30.6331 119.847 31.0851L119.638 30.6331L119.879 30.5234L120.105 30.6594L120.098 30.6705C120.105 30.6594 120.105 30.6594 120.105 30.6594L120.105 30.6597L120.108 30.6613L120.119 30.6679C120.129 30.674 120.145 30.6831 120.165 30.6952C120.206 30.7194 120.268 30.7554 120.349 30.8022C120.511 30.8957 120.75 31.032 121.058 31.2016C121.674 31.541 122.563 32.0138 123.653 32.5453C125.836 33.6093 128.813 34.904 132.008 35.837C135.209 36.7719 138.591 37.3323 141.596 36.9611C144.582 36.592 147.176 35.3078 148.887 32.554L148.888 32.5537C149.631 31.3601 149.846 30.2816 149.687 29.3006C149.527 28.3115 148.978 27.3584 148.076 26.4432C146.261 24.5999 143.122 23.0161 139.404 21.7255C131.987 19.1509 122.548 17.8368 117.687 17.8171M120.037 121.206C119.831 119.409 119.237 117.858 118.239 116.64C117.173 115.34 115.617 114.383 113.488 113.924C112.661 113.746 112.014 113.683 111.525 113.704C111.031 113.726 110.74 113.831 110.58 113.944C110.441 114.043 110.374 114.167 110.363 114.345C110.35 114.545 110.41 114.827 110.587 115.189C110.94 115.911 111.686 116.8 112.749 117.69C113.806 118.574 115.147 119.435 116.656 120.111C117.72 120.588 118.86 120.97 120.037 121.206ZM49.41 111.466C52.3735 112.408 55.275 112.7 57.5923 112.456C58.9487 112.313 60.1357 111.984 61.0213 111.468C61.9095 110.951 62.542 110.212 62.6506 109.258C62.7528 108.384 62.5205 107.619 62.028 107.009C61.5433 106.409 60.8316 105.988 60.0134 105.733C58.3815 105.225 56.2183 105.34 54.1412 106.139C52.2092 106.882 50.3197 108.229 48.9708 110.268C48.7273 110.182 48.4836 110.09 48.2398 109.994C41.5624 107.362 34.9872 101.184 35.0263 89.8279C35.0656 78.4251 41.035 69.7555 50.3478 65.3507C59.676 60.9387 72.408 60.7875 85.9491 66.5718C86.9877 67.0162 87.9441 67.1085 88.8055 66.8369C89.6629 66.5666 90.3529 65.9586 90.9072 65.1433C92.0018 63.5333 92.6578 60.9806 93.0587 58.0131C93.8149 52.4148 93.6962 45.0345 93.5964 38.8326C93.5899 38.4304 93.5835 38.0332 93.5775 37.6419C93.4604 29.9954 96.8466 25.0591 101.558 22.0163C106.297 18.9552 112.404 17.7975 117.687 17.8171M49.9559 110.594C51.1665 108.869 52.8125 107.716 54.5011 107.067C56.4119 106.331 58.3401 106.254 59.7152 106.682C60.4006 106.896 60.9213 107.226 61.2496 107.632C61.5697 108.029 61.7307 108.526 61.6584 109.143L61.6582 109.145C61.5967 109.687 61.2361 110.191 60.5168 110.61C59.7946 111.031 58.7592 111.333 57.4874 111.467C55.3829 111.688 52.7151 111.438 49.9559 110.594Z" fill="white"/>
<path fill-rule="evenodd" clip-rule="evenodd" d="M134.19 42.3244H118.289V41.1309H134.19V42.3244Z" fill="#3FB1B5"/>
<path fill-rule="evenodd" clip-rule="evenodd" d="M139.085 37.1525C137.053 37.1525 135.169 39.321 135.169 42.3244C135.169 45.3279 137.053 47.4964 139.085 47.4964C141.117 47.4964 143 45.3279 143 42.3244C143 39.321 141.117 37.1525 139.085 37.1525ZM133.971 42.3244C133.971 38.956 136.13 35.959 139.085 35.959C142.04 35.959 144.199 38.956 144.199 42.3244C144.199 45.6929 142.04 48.6899 139.085 48.6899C136.13 48.6899 133.971 45.6929 133.971 42.3244Z" fill="#3FB1B5"/>
<path fill-rule="evenodd" clip-rule="evenodd" d="M114.433 13.9181C112.229 13.9181 110.458 15.6981 110.458 17.8766V34.6257H109.259V17.8766C109.259 15.0424 111.563 12.7246 114.433 12.7246H119.427C122.274 12.7246 124.601 15.0191 124.601 17.8766H123.403C123.403 15.6816 121.615 13.9181 119.427 13.9181H114.433Z" fill="#66B0F0"/>
<path d="M114.673 53.0669H105.065C102.608 53.0669 100.61 51.0777 100.61 48.6309V39.0629C100.61 36.6162 102.608 34.627 105.065 34.627H114.673C117.13 34.627 119.128 36.6162 119.128 39.0629V48.6309C119.108 51.0777 117.13 53.0669 114.673 53.0669Z" fill="white"/>
<path fill-rule="evenodd" clip-rule="evenodd" d="M105.064 35.2228C102.938 35.2228 101.209 36.9448 101.209 39.062V48.63C101.209 50.7472 102.938 52.4692 105.064 52.4692H114.673C116.794 52.4692 118.51 50.7518 118.529 48.6275V39.062C118.529 36.9448 116.799 35.2228 114.673 35.2228H105.064ZM100.01 39.062C100.01 36.2857 102.276 34.0293 105.064 34.0293H114.673C117.461 34.0293 119.727 36.2857 119.727 39.062V48.6324L119.727 48.6349C119.704 51.403 117.466 53.6627 114.673 53.6627H105.064C102.276 53.6627 100.01 51.4063 100.01 48.63V39.062Z" fill="#66B0F0"/>
<path d="M112.176 49.9032H107.481C105.464 49.9032 103.806 48.272 103.806 46.243V41.5684C103.806 39.5593 105.444 37.9082 107.481 37.9082H112.176C114.193 37.9082 115.852 39.5394 115.852 41.5684V46.243C115.852 48.272 114.213 49.9032 112.176 49.9032Z" fill="white"/>
<path fill-rule="evenodd" clip-rule="evenodd" d="M107.482 38.506C105.778 38.506 104.406 39.8878 104.406 41.5694V46.244C104.406 47.9413 105.793 49.3074 107.482 49.3074H112.177C113.883 49.3074 115.253 47.9434 115.253 46.244V41.5694C115.253 39.8721 113.865 38.506 112.177 38.506H107.482ZM103.207 41.5694C103.207 39.2328 105.111 37.3125 107.482 37.3125H112.177C114.523 37.3125 116.452 39.2087 116.452 41.5694V46.244C116.452 48.6026 114.545 50.5009 112.177 50.5009H107.482C105.136 50.5009 103.207 48.6047 103.207 46.244V41.5694Z" fill="#66B0F0"/>
<path fill-rule="evenodd" clip-rule="evenodd" d="M105.204 49.0853L113.554 38.0254L114.512 38.7426L106.162 49.8025L105.204 49.0853Z" fill="#66B0F0"/>
<path fill-rule="evenodd" clip-rule="evenodd" d="M103.567 47.1946L110.799 37.6465L111.756 38.3651L104.524 47.9132L103.567 47.1946Z" fill="#66B0F0"/>
<path fill-rule="evenodd" clip-rule="evenodd" d="M107.94 49.5423L115.172 39.9941L116.129 40.7128L108.897 50.261L107.94 49.5423Z" fill="#66B0F0"/>
<path fill-rule="evenodd" clip-rule="evenodd" d="M110.839 49.5422L115.374 43.5547L116.331 44.2733L111.796 50.2608L110.839 49.5422Z" fill="#66B0F0"/>
<path fill-rule="evenodd" clip-rule="evenodd" d="M103.348 43.5942L107.862 37.6465L108.818 38.3662L104.304 44.3139L103.348 43.5942Z" fill="#66B0F0"/>
<path fill-rule="evenodd" clip-rule="evenodd" d="M102.147 325.802V314.842H103.346V325.802C103.346 331.423 98.7625 335.987 93.1177 335.987H68.4268V334.793H93.1177C98.1005 334.793 102.147 330.764 102.147 325.802Z" fill="#66B0F0"/>
<path fill-rule="evenodd" clip-rule="evenodd" d="M111.358 415.515V314.961H112.556V415.515H111.358Z" fill="#66B0F0"/>
<path fill-rule="evenodd" clip-rule="evenodd" d="M106.903 416.111C85.2201 416.111 67.8485 430.393 67.8485 447.76H66.6499C66.6499 429.519 84.7965 414.918 106.903 414.918H116.851C138.957 414.918 157.104 429.519 157.104 447.76H155.905C155.905 430.393 138.533 416.111 116.851 416.111H106.903Z" fill="#66B0F0"/>
<path d="M208.022 316.493H62.9927C55.7213 316.493 49.8481 310.625 49.8481 303.404H211.458L208.022 316.493Z" fill="#FFCF2D"/>
<path d="M66.3705 469.084C72.2841 469.084 77.078 464.31 77.078 458.422C77.078 452.533 72.2841 447.76 66.3705 447.76C60.457 447.76 55.6631 452.533 55.6631 458.422C55.6631 464.31 60.457 469.084 66.3705 469.084Z" fill="#FFCF2D"/>
<path d="M60.9155 338.115H82.4103C84.1682 338.115 85.5865 336.703 85.5865 334.952V334.714C85.5865 332.963 84.1682 331.551 82.4103 331.551H60.9155C59.1576 331.551 57.7393 332.963 57.7393 334.714V334.952C57.7393 336.703 59.1576 338.115 60.9155 338.115Z" fill="#FFCF2D"/>
<path fill-rule="evenodd" clip-rule="evenodd" d="M16.044 211.285C13.3883 203.856 18.9108 196.047 26.8366 196.047H102.488C109.853 196.047 116.411 200.662 118.893 207.562L118.894 207.563L153.599 304.399H49.4272L16.044 211.285ZM17.1731 210.885C14.7952 204.231 19.7404 197.24 26.8366 197.24H102.488C109.345 197.24 115.453 201.537 117.765 207.965L151.898 303.205H50.272L17.1732 210.885C17.1732 210.885 17.1731 210.885 17.1731 210.885Z" fill="#FFCF2D"/>
<path fill-rule="evenodd" clip-rule="evenodd" d="M19.2461 199.607H95.836C102.962 199.607 109.3 204.063 111.702 210.745L111.703 210.745L145.249 304.399H54.9441V303.205H143.549L110.574 211.147C108.342 204.939 102.454 200.801 95.836 200.801H19.2461V199.607Z" fill="#FFCF2D"/>
<path d="M156.324 469.084C162.238 469.084 167.032 464.31 167.032 458.422C167.032 452.533 162.238 447.76 156.324 447.76C150.411 447.76 145.617 452.533 145.617 458.422C145.617 464.31 150.411 469.084 156.324 469.084Z" fill="#FFCF2D"/>
</g>
<defs>
<filter id="filter0_d_2435_8152" x="0" y="0" width="443" height="489" filterUnits="userSpaceOnUse" color-interpolation-filters="sRGB">
<feFlood flood-opacity="0" result="BackgroundImageFix"/>
<feColorMatrix in="SourceAlpha" type="matrix" values="0 0 0 0 0 0 0 0 0 0 0 0 0 0 0 0 0 0 127 0" result="hardAlpha"/>
<feOffset dy="4"/>
<feGaussianBlur stdDeviation="2"/>
<feComposite in2="hardAlpha" operator="out"/>
<feColorMatrix type="matrix" values="0 0 0 0 0 0 0 0 0 0 0 0 0 0 0 0 0 0 0.25 0"/>
<feBlend mode="normal" in2="BackgroundImageFix" result="effect1_dropShadow_2435_8152"/>
<feBlend mode="normal" in="SourceGraphic" in2="effect1_dropShadow_2435_8152" result="shape"/>
</filter>
</defs>
</svg>
